<mxfile host="Electron" agent="Mozilla/5.0 (Windows NT 10.0; Win64; x64) AppleWebKit/537.36 (KHTML, like Gecko) draw.io/25.0.2 Chrome/128.0.6613.186 Electron/32.2.5 Safari/537.36" version="25.0.2" pages="6">
  <diagram name="main" id="HVOKVbPduS8B3qpzycQB">
    <mxGraphModel dx="1720" dy="956" grid="1" gridSize="10" guides="1" tooltips="1" connect="1" arrows="1" fold="1" page="1" pageScale="1" pageWidth="827" pageHeight="1169" math="0" shadow="0">
      <root>
        <mxCell id="0" />
        <mxCell id="1" parent="0" />
        <mxCell id="ig6e3LtxB7Ap9rGaMrec-5" value="" style="edgeStyle=orthogonalEdgeStyle;rounded=0;orthogonalLoop=1;jettySize=auto;html=1;" parent="1" source="ig6e3LtxB7Ap9rGaMrec-2" target="ig6e3LtxB7Ap9rGaMrec-4" edge="1">
          <mxGeometry relative="1" as="geometry" />
        </mxCell>
        <mxCell id="ig6e3LtxB7Ap9rGaMrec-2" value="Начало" style="ellipse;whiteSpace=wrap;html=1;" parent="1" vertex="1">
          <mxGeometry x="340" y="80" width="120" height="40" as="geometry" />
        </mxCell>
        <mxCell id="ig6e3LtxB7Ap9rGaMrec-11" value="" style="edgeStyle=orthogonalEdgeStyle;rounded=0;orthogonalLoop=1;jettySize=auto;html=1;" parent="1" source="ig6e3LtxB7Ap9rGaMrec-4" target="ig6e3LtxB7Ap9rGaMrec-10" edge="1">
          <mxGeometry relative="1" as="geometry" />
        </mxCell>
        <mxCell id="ig6e3LtxB7Ap9rGaMrec-4" value="int main()" style="shape=process;whiteSpace=wrap;html=1;backgroundOutline=1;" parent="1" vertex="1">
          <mxGeometry x="340" y="160" width="120" height="40" as="geometry" />
        </mxCell>
        <mxCell id="ig6e3LtxB7Ap9rGaMrec-6" value="" style="endArrow=none;dashed=1;html=1;rounded=0;" parent="1" target="ig6e3LtxB7Ap9rGaMrec-7" edge="1">
          <mxGeometry width="50" height="50" relative="1" as="geometry">
            <mxPoint x="400" y="140" as="sourcePoint" />
            <mxPoint x="560" y="140" as="targetPoint" />
          </mxGeometry>
        </mxCell>
        <mxCell id="ig6e3LtxB7Ap9rGaMrec-7" value="" style="strokeWidth=2;html=1;shape=mxgraph.flowchart.annotation_1;align=left;pointerEvents=1;" parent="1" vertex="1">
          <mxGeometry x="560" y="60" width="50" height="160" as="geometry" />
        </mxCell>
        <mxCell id="ig6e3LtxB7Ap9rGaMrec-8" value="&lt;div&gt;#include &amp;lt;iostream&amp;gt;&lt;/div&gt;&lt;div&gt;#include &amp;lt;clocale&amp;gt;&lt;/div&gt;&lt;div&gt;using namespace std;&lt;/div&gt;&lt;div&gt;&lt;br&gt;&lt;/div&gt;&lt;div&gt;const int row = 3, col = 4;&lt;/div&gt;&lt;div&gt;&lt;br&gt;&lt;/div&gt;&lt;div&gt;void show_2d(int arr[][col], int row, int col);&lt;/div&gt;&lt;div&gt;void show_1d(int arr[], int n);&lt;/div&gt;&lt;div&gt;void fill_2d(int arr[][col], int row, int col);&lt;/div&gt;&lt;div&gt;void fill_1d(int arr_1d[], int arr[][col], int row, int col);&lt;/div&gt;&lt;div&gt;void back(int arr_1d[], int n, int arr[][col], int row, int col);&lt;/div&gt;" style="text;html=1;align=left;verticalAlign=middle;resizable=0;points=[];autosize=1;strokeColor=none;fillColor=none;" parent="1" vertex="1">
          <mxGeometry x="570" y="55" width="320" height="170" as="geometry" />
        </mxCell>
        <mxCell id="ig6e3LtxB7Ap9rGaMrec-14" value="" style="edgeStyle=orthogonalEdgeStyle;rounded=0;orthogonalLoop=1;jettySize=auto;html=1;" parent="1" source="ig6e3LtxB7Ap9rGaMrec-10" target="ig6e3LtxB7Ap9rGaMrec-13" edge="1">
          <mxGeometry relative="1" as="geometry" />
        </mxCell>
        <mxCell id="ig6e3LtxB7Ap9rGaMrec-10" value="setlocale(LC_ALL, &quot;RU&quot;);" style="whiteSpace=wrap;html=1;" parent="1" vertex="1">
          <mxGeometry x="330" y="240" width="140" height="40" as="geometry" />
        </mxCell>
        <mxCell id="ig6e3LtxB7Ap9rGaMrec-12" value="{" style="text;html=1;align=center;verticalAlign=middle;resizable=0;points=[];autosize=1;strokeColor=none;fillColor=none;" parent="1" vertex="1">
          <mxGeometry x="375" y="198" width="30" height="30" as="geometry" />
        </mxCell>
        <mxCell id="ig6e3LtxB7Ap9rGaMrec-16" value="" style="edgeStyle=orthogonalEdgeStyle;rounded=0;orthogonalLoop=1;jettySize=auto;html=1;entryX=0.5;entryY=0;entryDx=0;entryDy=0;" parent="1" source="ig6e3LtxB7Ap9rGaMrec-13" target="ig6e3LtxB7Ap9rGaMrec-17" edge="1">
          <mxGeometry relative="1" as="geometry">
            <mxPoint x="400" y="360" as="targetPoint" />
            <Array as="points">
              <mxPoint x="400" y="360" />
            </Array>
          </mxGeometry>
        </mxCell>
        <mxCell id="ig6e3LtxB7Ap9rGaMrec-13" value="srand(time(NULL));" style="whiteSpace=wrap;html=1;" parent="1" vertex="1">
          <mxGeometry x="340" y="300" width="120" height="40" as="geometry" />
        </mxCell>
        <mxCell id="ig6e3LtxB7Ap9rGaMrec-20" value="" style="edgeStyle=orthogonalEdgeStyle;rounded=0;orthogonalLoop=1;jettySize=auto;html=1;" parent="1" source="ig6e3LtxB7Ap9rGaMrec-17" target="ig6e3LtxB7Ap9rGaMrec-19" edge="1">
          <mxGeometry relative="1" as="geometry" />
        </mxCell>
        <mxCell id="ig6e3LtxB7Ap9rGaMrec-17" value="int arr[row][col]{};" style="whiteSpace=wrap;html=1;" parent="1" vertex="1">
          <mxGeometry x="340" y="360" width="120" height="40" as="geometry" />
        </mxCell>
        <mxCell id="ig6e3LtxB7Ap9rGaMrec-22" value="" style="edgeStyle=orthogonalEdgeStyle;rounded=0;orthogonalLoop=1;jettySize=auto;html=1;" parent="1" source="ig6e3LtxB7Ap9rGaMrec-19" target="ig6e3LtxB7Ap9rGaMrec-21" edge="1">
          <mxGeometry relative="1" as="geometry" />
        </mxCell>
        <mxCell id="ig6e3LtxB7Ap9rGaMrec-19" value="fill_2d(arr, row, col);" style="whiteSpace=wrap;html=1;" parent="1" vertex="1">
          <mxGeometry x="320" y="420" width="160" height="40" as="geometry" />
        </mxCell>
        <mxCell id="ig6e3LtxB7Ap9rGaMrec-24" value="" style="edgeStyle=orthogonalEdgeStyle;rounded=0;orthogonalLoop=1;jettySize=auto;html=1;" parent="1" source="ig6e3LtxB7Ap9rGaMrec-21" target="ig6e3LtxB7Ap9rGaMrec-23" edge="1">
          <mxGeometry relative="1" as="geometry" />
        </mxCell>
        <mxCell id="ig6e3LtxB7Ap9rGaMrec-21" value="cout &amp;lt;&amp;lt; &quot;Изначальный двумерный массив:\n&quot;;" style="shape=parallelogram;perimeter=parallelogramPerimeter;whiteSpace=wrap;html=1;fixedSize=1;" parent="1" vertex="1">
          <mxGeometry x="260" y="480" width="280" height="40" as="geometry" />
        </mxCell>
        <mxCell id="ig6e3LtxB7Ap9rGaMrec-26" value="" style="edgeStyle=orthogonalEdgeStyle;rounded=0;orthogonalLoop=1;jettySize=auto;html=1;" parent="1" source="ig6e3LtxB7Ap9rGaMrec-23" target="ig6e3LtxB7Ap9rGaMrec-25" edge="1">
          <mxGeometry relative="1" as="geometry" />
        </mxCell>
        <mxCell id="ig6e3LtxB7Ap9rGaMrec-23" value="show_2d(arr, row, col);" style="whiteSpace=wrap;html=1;" parent="1" vertex="1">
          <mxGeometry x="315" y="540" width="170" height="40" as="geometry" />
        </mxCell>
        <mxCell id="ig6e3LtxB7Ap9rGaMrec-28" value="" style="edgeStyle=orthogonalEdgeStyle;rounded=0;orthogonalLoop=1;jettySize=auto;html=1;" parent="1" source="ig6e3LtxB7Ap9rGaMrec-25" target="ig6e3LtxB7Ap9rGaMrec-27" edge="1">
          <mxGeometry relative="1" as="geometry" />
        </mxCell>
        <mxCell id="ig6e3LtxB7Ap9rGaMrec-25" value="cout &amp;lt;&amp;lt; endl;" style="shape=parallelogram;perimeter=parallelogramPerimeter;whiteSpace=wrap;html=1;fixedSize=1;" parent="1" vertex="1">
          <mxGeometry x="340" y="600" width="120" height="40" as="geometry" />
        </mxCell>
        <mxCell id="ig6e3LtxB7Ap9rGaMrec-32" value="" style="edgeStyle=orthogonalEdgeStyle;rounded=0;orthogonalLoop=1;jettySize=auto;html=1;" parent="1" source="ig6e3LtxB7Ap9rGaMrec-27" target="ig6e3LtxB7Ap9rGaMrec-31" edge="1">
          <mxGeometry relative="1" as="geometry" />
        </mxCell>
        <mxCell id="ig6e3LtxB7Ap9rGaMrec-27" value="int arr_1d[2 * row * col]{};" style="whiteSpace=wrap;html=1;" parent="1" vertex="1">
          <mxGeometry x="325" y="680" width="150" height="40" as="geometry" />
        </mxCell>
        <mxCell id="ig6e3LtxB7Ap9rGaMrec-34" value="" style="edgeStyle=orthogonalEdgeStyle;rounded=0;orthogonalLoop=1;jettySize=auto;html=1;" parent="1" source="ig6e3LtxB7Ap9rGaMrec-31" target="ig6e3LtxB7Ap9rGaMrec-33" edge="1">
          <mxGeometry relative="1" as="geometry" />
        </mxCell>
        <mxCell id="ig6e3LtxB7Ap9rGaMrec-31" value="fill_1d(arr_1d, arr, row, col);" style="whiteSpace=wrap;html=1;" parent="1" vertex="1">
          <mxGeometry x="300" y="740" width="200" height="40" as="geometry" />
        </mxCell>
        <mxCell id="ig6e3LtxB7Ap9rGaMrec-36" value="" style="edgeStyle=orthogonalEdgeStyle;rounded=0;orthogonalLoop=1;jettySize=auto;html=1;" parent="1" source="ig6e3LtxB7Ap9rGaMrec-33" target="ig6e3LtxB7Ap9rGaMrec-35" edge="1">
          <mxGeometry relative="1" as="geometry" />
        </mxCell>
        <mxCell id="ig6e3LtxB7Ap9rGaMrec-33" value="cout &amp;lt;&amp;lt; &quot;Полученный одномерный массив:\n&quot;;" style="shape=parallelogram;perimeter=parallelogramPerimeter;whiteSpace=wrap;html=1;fixedSize=1;" parent="1" vertex="1">
          <mxGeometry x="255" y="800" width="290" height="40" as="geometry" />
        </mxCell>
        <mxCell id="ig6e3LtxB7Ap9rGaMrec-38" value="" style="edgeStyle=orthogonalEdgeStyle;rounded=0;orthogonalLoop=1;jettySize=auto;html=1;" parent="1" source="ig6e3LtxB7Ap9rGaMrec-35" target="ig6e3LtxB7Ap9rGaMrec-37" edge="1">
          <mxGeometry relative="1" as="geometry" />
        </mxCell>
        <mxCell id="ig6e3LtxB7Ap9rGaMrec-35" value="show_1d(arr_1d, 2 * row * col);" style="whiteSpace=wrap;html=1;" parent="1" vertex="1">
          <mxGeometry x="310" y="860" width="180" height="40" as="geometry" />
        </mxCell>
        <mxCell id="ig6e3LtxB7Ap9rGaMrec-40" value="" style="edgeStyle=orthogonalEdgeStyle;rounded=0;orthogonalLoop=1;jettySize=auto;html=1;" parent="1" source="ig6e3LtxB7Ap9rGaMrec-37" target="ig6e3LtxB7Ap9rGaMrec-39" edge="1">
          <mxGeometry relative="1" as="geometry" />
        </mxCell>
        <mxCell id="ig6e3LtxB7Ap9rGaMrec-37" value="cout &amp;lt;&amp;lt; endl;" style="shape=parallelogram;perimeter=parallelogramPerimeter;whiteSpace=wrap;html=1;fixedSize=1;" parent="1" vertex="1">
          <mxGeometry x="340" y="920" width="120" height="40" as="geometry" />
        </mxCell>
        <mxCell id="ig6e3LtxB7Ap9rGaMrec-42" value="" style="edgeStyle=orthogonalEdgeStyle;rounded=0;orthogonalLoop=1;jettySize=auto;html=1;" parent="1" source="ig6e3LtxB7Ap9rGaMrec-39" target="ig6e3LtxB7Ap9rGaMrec-41" edge="1">
          <mxGeometry relative="1" as="geometry" />
        </mxCell>
        <mxCell id="ig6e3LtxB7Ap9rGaMrec-39" value="int newarr[row][col]{};" style="whiteSpace=wrap;html=1;" parent="1" vertex="1">
          <mxGeometry x="340" y="1000" width="120" height="40" as="geometry" />
        </mxCell>
        <mxCell id="ig6e3LtxB7Ap9rGaMrec-44" value="" style="edgeStyle=orthogonalEdgeStyle;rounded=0;orthogonalLoop=1;jettySize=auto;html=1;" parent="1" source="ig6e3LtxB7Ap9rGaMrec-41" target="ig6e3LtxB7Ap9rGaMrec-43" edge="1">
          <mxGeometry relative="1" as="geometry" />
        </mxCell>
        <mxCell id="ig6e3LtxB7Ap9rGaMrec-41" value="back(arr_1d, 2 * row * col, newarr, row, col);" style="whiteSpace=wrap;html=1;" parent="1" vertex="1">
          <mxGeometry x="260" y="1060" width="280" height="40" as="geometry" />
        </mxCell>
        <mxCell id="ig6e3LtxB7Ap9rGaMrec-46" value="" style="edgeStyle=orthogonalEdgeStyle;rounded=0;orthogonalLoop=1;jettySize=auto;html=1;" parent="1" source="ig6e3LtxB7Ap9rGaMrec-43" target="ig6e3LtxB7Ap9rGaMrec-45" edge="1">
          <mxGeometry relative="1" as="geometry" />
        </mxCell>
        <mxCell id="ig6e3LtxB7Ap9rGaMrec-43" value="cout &amp;lt;&amp;lt; &quot;Полученный двумерный массив:\n&quot;;" style="shape=parallelogram;perimeter=parallelogramPerimeter;whiteSpace=wrap;html=1;fixedSize=1;" parent="1" vertex="1">
          <mxGeometry x="260" y="1120" width="280" height="40" as="geometry" />
        </mxCell>
        <mxCell id="ig6e3LtxB7Ap9rGaMrec-48" value="" style="edgeStyle=orthogonalEdgeStyle;rounded=0;orthogonalLoop=1;jettySize=auto;html=1;" parent="1" source="ig6e3LtxB7Ap9rGaMrec-45" target="ig6e3LtxB7Ap9rGaMrec-47" edge="1">
          <mxGeometry relative="1" as="geometry" />
        </mxCell>
        <mxCell id="ig6e3LtxB7Ap9rGaMrec-45" value="show_2d(newarr, row, col);" style="whiteSpace=wrap;html=1;" parent="1" vertex="1">
          <mxGeometry x="300" y="1180" width="200" height="40" as="geometry" />
        </mxCell>
        <mxCell id="ig6e3LtxB7Ap9rGaMrec-50" style="edgeStyle=orthogonalEdgeStyle;rounded=0;orthogonalLoop=1;jettySize=auto;html=1;entryX=0.5;entryY=0;entryDx=0;entryDy=0;" parent="1" source="ig6e3LtxB7Ap9rGaMrec-47" target="ig6e3LtxB7Ap9rGaMrec-49" edge="1">
          <mxGeometry relative="1" as="geometry" />
        </mxCell>
        <mxCell id="ig6e3LtxB7Ap9rGaMrec-47" value="cout &amp;lt;&amp;lt; endl;" style="shape=parallelogram;perimeter=parallelogramPerimeter;whiteSpace=wrap;html=1;fixedSize=1;" parent="1" vertex="1">
          <mxGeometry x="340" y="1240" width="120" height="40" as="geometry" />
        </mxCell>
        <mxCell id="ig6e3LtxB7Ap9rGaMrec-49" value="return 0;" style="ellipse;whiteSpace=wrap;html=1;" parent="1" vertex="1">
          <mxGeometry x="340" y="1320" width="120" height="40" as="geometry" />
        </mxCell>
        <mxCell id="ig6e3LtxB7Ap9rGaMrec-51" value="}" style="text;html=1;align=center;verticalAlign=middle;resizable=0;points=[];autosize=1;strokeColor=none;fillColor=none;" parent="1" vertex="1">
          <mxGeometry x="395" y="1358" width="30" height="30" as="geometry" />
        </mxCell>
      </root>
    </mxGraphModel>
  </diagram>
  <diagram id="V0X4AXGsw6IWSMh90zi9" name="show_2d">
    <mxGraphModel dx="1290" dy="717" grid="1" gridSize="10" guides="1" tooltips="1" connect="1" arrows="1" fold="1" page="1" pageScale="1" pageWidth="827" pageHeight="1169" math="0" shadow="0">
      <root>
        <mxCell id="0" />
        <mxCell id="1" parent="0" />
        <mxCell id="f-L46pISBpKcbHhpGkLQ-1" value="" style="group" vertex="1" connectable="0" parent="1">
          <mxGeometry x="260" y="78" width="285" height="552" as="geometry" />
        </mxCell>
        <mxCell id="QppykPS6WlLNEeYxn3Hx-4" value="" style="edgeStyle=orthogonalEdgeStyle;rounded=0;orthogonalLoop=1;jettySize=auto;html=1;" parent="f-L46pISBpKcbHhpGkLQ-1" source="QppykPS6WlLNEeYxn3Hx-2" target="QppykPS6WlLNEeYxn3Hx-3" edge="1">
          <mxGeometry relative="1" as="geometry" />
        </mxCell>
        <mxCell id="QppykPS6WlLNEeYxn3Hx-2" value="void show_2d(int arr[][col], int row, int col)" style="shape=process;whiteSpace=wrap;html=1;backgroundOutline=1;" parent="f-L46pISBpKcbHhpGkLQ-1" vertex="1">
          <mxGeometry width="280" height="40" as="geometry" />
        </mxCell>
        <mxCell id="QppykPS6WlLNEeYxn3Hx-7" value="" style="edgeStyle=orthogonalEdgeStyle;rounded=0;orthogonalLoop=1;jettySize=auto;html=1;" parent="f-L46pISBpKcbHhpGkLQ-1" source="QppykPS6WlLNEeYxn3Hx-3" target="QppykPS6WlLNEeYxn3Hx-6" edge="1">
          <mxGeometry relative="1" as="geometry" />
        </mxCell>
        <mxCell id="QppykPS6WlLNEeYxn3Hx-19" style="edgeStyle=orthogonalEdgeStyle;rounded=0;orthogonalLoop=1;jettySize=auto;html=1;" parent="f-L46pISBpKcbHhpGkLQ-1" source="QppykPS6WlLNEeYxn3Hx-3" target="QppykPS6WlLNEeYxn3Hx-21" edge="1">
          <mxGeometry relative="1" as="geometry">
            <mxPoint x="140" y="482" as="targetPoint" />
            <Array as="points">
              <mxPoint x="280" y="102" />
              <mxPoint x="280" y="462" />
              <mxPoint x="140" y="462" />
            </Array>
          </mxGeometry>
        </mxCell>
        <mxCell id="QppykPS6WlLNEeYxn3Hx-3" value="for (int i = 0; i &amp;lt; row; i++)" style="shape=hexagon;perimeter=hexagonPerimeter2;whiteSpace=wrap;html=1;fixedSize=1;" parent="f-L46pISBpKcbHhpGkLQ-1" vertex="1">
          <mxGeometry x="50" y="82" width="180" height="40" as="geometry" />
        </mxCell>
        <mxCell id="QppykPS6WlLNEeYxn3Hx-5" value="{" style="text;html=1;align=center;verticalAlign=middle;resizable=0;points=[];autosize=1;strokeColor=none;fillColor=none;" parent="f-L46pISBpKcbHhpGkLQ-1" vertex="1">
          <mxGeometry x="115" y="40" width="30" height="30" as="geometry" />
        </mxCell>
        <mxCell id="QppykPS6WlLNEeYxn3Hx-11" value="" style="edgeStyle=orthogonalEdgeStyle;rounded=0;orthogonalLoop=1;jettySize=auto;html=1;" parent="f-L46pISBpKcbHhpGkLQ-1" source="QppykPS6WlLNEeYxn3Hx-6" target="QppykPS6WlLNEeYxn3Hx-10" edge="1">
          <mxGeometry relative="1" as="geometry" />
        </mxCell>
        <mxCell id="QppykPS6WlLNEeYxn3Hx-14" style="edgeStyle=orthogonalEdgeStyle;rounded=0;orthogonalLoop=1;jettySize=auto;html=1;exitX=1;exitY=0.5;exitDx=0;exitDy=0;" parent="f-L46pISBpKcbHhpGkLQ-1" source="QppykPS6WlLNEeYxn3Hx-6" target="QppykPS6WlLNEeYxn3Hx-16" edge="1">
          <mxGeometry relative="1" as="geometry">
            <mxPoint x="140" y="362" as="targetPoint" />
            <Array as="points">
              <mxPoint x="250" y="182" />
              <mxPoint x="250" y="322" />
              <mxPoint x="140" y="322" />
            </Array>
          </mxGeometry>
        </mxCell>
        <mxCell id="QppykPS6WlLNEeYxn3Hx-6" value="for (int j = 0; j &amp;lt; col; j++)" style="shape=hexagon;perimeter=hexagonPerimeter2;whiteSpace=wrap;html=1;fixedSize=1;" parent="f-L46pISBpKcbHhpGkLQ-1" vertex="1">
          <mxGeometry x="61.25" y="162" width="157.5" height="40" as="geometry" />
        </mxCell>
        <mxCell id="QppykPS6WlLNEeYxn3Hx-8" value="{" style="text;html=1;align=center;verticalAlign=middle;resizable=0;points=[];autosize=1;strokeColor=none;fillColor=none;" parent="f-L46pISBpKcbHhpGkLQ-1" vertex="1">
          <mxGeometry x="115" y="120" width="30" height="30" as="geometry" />
        </mxCell>
        <mxCell id="QppykPS6WlLNEeYxn3Hx-9" value="1" style="text;html=1;align=center;verticalAlign=middle;resizable=0;points=[];autosize=1;strokeColor=none;fillColor=none;" parent="f-L46pISBpKcbHhpGkLQ-1" vertex="1">
          <mxGeometry x="135" y="132" width="30" height="30" as="geometry" />
        </mxCell>
        <mxCell id="QppykPS6WlLNEeYxn3Hx-13" style="edgeStyle=orthogonalEdgeStyle;rounded=0;orthogonalLoop=1;jettySize=auto;html=1;entryX=0;entryY=0.5;entryDx=0;entryDy=0;" parent="f-L46pISBpKcbHhpGkLQ-1" source="QppykPS6WlLNEeYxn3Hx-10" target="QppykPS6WlLNEeYxn3Hx-6" edge="1">
          <mxGeometry relative="1" as="geometry">
            <Array as="points">
              <mxPoint x="140" y="302" />
              <mxPoint x="30" y="302" />
              <mxPoint x="30" y="182" />
            </Array>
          </mxGeometry>
        </mxCell>
        <mxCell id="QppykPS6WlLNEeYxn3Hx-10" value="cout &amp;lt;&amp;lt; arr[i][j] &amp;lt;&amp;lt; &#39;\t&#39;;" style="shape=parallelogram;perimeter=parallelogramPerimeter;whiteSpace=wrap;html=1;fixedSize=1;" parent="f-L46pISBpKcbHhpGkLQ-1" vertex="1">
          <mxGeometry x="50" y="242" width="180" height="40" as="geometry" />
        </mxCell>
        <mxCell id="QppykPS6WlLNEeYxn3Hx-12" value="1" style="text;html=1;align=center;verticalAlign=middle;resizable=0;points=[];autosize=1;strokeColor=none;fillColor=none;" parent="f-L46pISBpKcbHhpGkLQ-1" vertex="1">
          <mxGeometry x="135" y="212" width="30" height="30" as="geometry" />
        </mxCell>
        <mxCell id="QppykPS6WlLNEeYxn3Hx-15" value="0" style="text;html=1;align=center;verticalAlign=middle;resizable=0;points=[];autosize=1;strokeColor=none;fillColor=none;" parent="f-L46pISBpKcbHhpGkLQ-1" vertex="1">
          <mxGeometry x="225" y="162" width="30" height="30" as="geometry" />
        </mxCell>
        <mxCell id="QppykPS6WlLNEeYxn3Hx-17" style="edgeStyle=orthogonalEdgeStyle;rounded=0;orthogonalLoop=1;jettySize=auto;html=1;entryX=0;entryY=0.5;entryDx=0;entryDy=0;" parent="f-L46pISBpKcbHhpGkLQ-1" source="QppykPS6WlLNEeYxn3Hx-16" target="QppykPS6WlLNEeYxn3Hx-3" edge="1">
          <mxGeometry relative="1" as="geometry">
            <Array as="points">
              <mxPoint x="140" y="442" />
              <mxPoint y="442" />
              <mxPoint y="102" />
            </Array>
          </mxGeometry>
        </mxCell>
        <mxCell id="QppykPS6WlLNEeYxn3Hx-16" value="cout &amp;lt;&amp;lt; endl;" style="shape=parallelogram;perimeter=parallelogramPerimeter;whiteSpace=wrap;html=1;fixedSize=1;" parent="f-L46pISBpKcbHhpGkLQ-1" vertex="1">
          <mxGeometry x="80" y="362" width="120" height="40" as="geometry" />
        </mxCell>
        <mxCell id="QppykPS6WlLNEeYxn3Hx-18" value="}" style="text;html=1;align=center;verticalAlign=middle;resizable=0;points=[];autosize=1;strokeColor=none;fillColor=none;" parent="f-L46pISBpKcbHhpGkLQ-1" vertex="1">
          <mxGeometry x="135" y="400" width="30" height="30" as="geometry" />
        </mxCell>
        <mxCell id="QppykPS6WlLNEeYxn3Hx-20" value="0" style="text;html=1;align=center;verticalAlign=middle;resizable=0;points=[];autosize=1;strokeColor=none;fillColor=none;" parent="f-L46pISBpKcbHhpGkLQ-1" vertex="1">
          <mxGeometry x="255" y="82" width="30" height="30" as="geometry" />
        </mxCell>
        <mxCell id="QppykPS6WlLNEeYxn3Hx-21" value="return;" style="ellipse;whiteSpace=wrap;html=1;" parent="f-L46pISBpKcbHhpGkLQ-1" vertex="1">
          <mxGeometry x="80" y="482" width="120" height="40" as="geometry" />
        </mxCell>
        <mxCell id="QppykPS6WlLNEeYxn3Hx-22" value="}" style="text;html=1;align=center;verticalAlign=middle;resizable=0;points=[];autosize=1;strokeColor=none;fillColor=none;" parent="f-L46pISBpKcbHhpGkLQ-1" vertex="1">
          <mxGeometry x="135" y="522" width="30" height="30" as="geometry" />
        </mxCell>
      </root>
    </mxGraphModel>
  </diagram>
  <diagram id="ahunCUk0GQlRWotEAW7J" name="show_1d">
    <mxGraphModel dx="1290" dy="717" grid="1" gridSize="10" guides="1" tooltips="1" connect="1" arrows="1" fold="1" page="1" pageScale="1" pageWidth="827" pageHeight="1169" math="0" shadow="0">
      <root>
        <mxCell id="0" />
        <mxCell id="1" parent="0" />
        <mxCell id="neZ0o-FFOhgT2ZGjuYdi-1" value="" style="group" vertex="1" connectable="0" parent="1">
          <mxGeometry x="310" y="80" width="270" height="508" as="geometry" />
        </mxCell>
        <mxCell id="3UyYihiyJlNhXBjqAL7T-4" value="" style="edgeStyle=orthogonalEdgeStyle;rounded=0;orthogonalLoop=1;jettySize=auto;html=1;" parent="neZ0o-FFOhgT2ZGjuYdi-1" source="3UyYihiyJlNhXBjqAL7T-2" target="3UyYihiyJlNhXBjqAL7T-3" edge="1">
          <mxGeometry relative="1" as="geometry" />
        </mxCell>
        <mxCell id="3UyYihiyJlNhXBjqAL7T-2" value="void show_1d(int arr[], int n)" style="shape=process;whiteSpace=wrap;html=1;backgroundOutline=1;" parent="neZ0o-FFOhgT2ZGjuYdi-1" vertex="1">
          <mxGeometry x="30" width="200" height="40" as="geometry" />
        </mxCell>
        <mxCell id="3UyYihiyJlNhXBjqAL7T-7" value="" style="edgeStyle=orthogonalEdgeStyle;rounded=0;orthogonalLoop=1;jettySize=auto;html=1;" parent="neZ0o-FFOhgT2ZGjuYdi-1" source="3UyYihiyJlNhXBjqAL7T-3" target="3UyYihiyJlNhXBjqAL7T-6" edge="1">
          <mxGeometry relative="1" as="geometry" />
        </mxCell>
        <mxCell id="3UyYihiyJlNhXBjqAL7T-3" value="cout &amp;lt;&amp;lt; &#39;{&#39;;" style="shape=parallelogram;perimeter=parallelogramPerimeter;whiteSpace=wrap;html=1;fixedSize=1;" parent="neZ0o-FFOhgT2ZGjuYdi-1" vertex="1">
          <mxGeometry x="70" y="80" width="120" height="40" as="geometry" />
        </mxCell>
        <mxCell id="3UyYihiyJlNhXBjqAL7T-5" value="{" style="text;html=1;align=center;verticalAlign=middle;resizable=0;points=[];autosize=1;strokeColor=none;fillColor=none;" parent="neZ0o-FFOhgT2ZGjuYdi-1" vertex="1">
          <mxGeometry x="105" y="38" width="30" height="30" as="geometry" />
        </mxCell>
        <mxCell id="3UyYihiyJlNhXBjqAL7T-9" value="" style="edgeStyle=orthogonalEdgeStyle;rounded=0;orthogonalLoop=1;jettySize=auto;html=1;" parent="neZ0o-FFOhgT2ZGjuYdi-1" source="3UyYihiyJlNhXBjqAL7T-6" target="3UyYihiyJlNhXBjqAL7T-8" edge="1">
          <mxGeometry relative="1" as="geometry" />
        </mxCell>
        <mxCell id="3UyYihiyJlNhXBjqAL7T-16" style="edgeStyle=orthogonalEdgeStyle;rounded=0;orthogonalLoop=1;jettySize=auto;html=1;" parent="neZ0o-FFOhgT2ZGjuYdi-1" source="3UyYihiyJlNhXBjqAL7T-6" target="3UyYihiyJlNhXBjqAL7T-18" edge="1">
          <mxGeometry relative="1" as="geometry">
            <mxPoint x="130" y="440" as="targetPoint" />
            <Array as="points">
              <mxPoint x="260" y="180" />
              <mxPoint x="260" y="420" />
              <mxPoint x="130" y="420" />
            </Array>
          </mxGeometry>
        </mxCell>
        <mxCell id="3UyYihiyJlNhXBjqAL7T-6" value="for (int i = 0; i &amp;lt; n; i++)" style="shape=hexagon;perimeter=hexagonPerimeter2;whiteSpace=wrap;html=1;fixedSize=1;" parent="neZ0o-FFOhgT2ZGjuYdi-1" vertex="1">
          <mxGeometry x="60" y="160" width="140" height="40" as="geometry" />
        </mxCell>
        <mxCell id="3UyYihiyJlNhXBjqAL7T-13" value="" style="edgeStyle=orthogonalEdgeStyle;rounded=0;orthogonalLoop=1;jettySize=auto;html=1;" parent="neZ0o-FFOhgT2ZGjuYdi-1" source="3UyYihiyJlNhXBjqAL7T-8" target="3UyYihiyJlNhXBjqAL7T-12" edge="1">
          <mxGeometry relative="1" as="geometry" />
        </mxCell>
        <mxCell id="3UyYihiyJlNhXBjqAL7T-8" value="cout &amp;lt;&amp;lt; arr[i];" style="shape=parallelogram;perimeter=parallelogramPerimeter;whiteSpace=wrap;html=1;fixedSize=1;" parent="neZ0o-FFOhgT2ZGjuYdi-1" vertex="1">
          <mxGeometry x="70" y="240" width="120" height="40" as="geometry" />
        </mxCell>
        <mxCell id="3UyYihiyJlNhXBjqAL7T-10" value="{" style="text;html=1;align=center;verticalAlign=middle;resizable=0;points=[];autosize=1;strokeColor=none;fillColor=none;" parent="neZ0o-FFOhgT2ZGjuYdi-1" vertex="1">
          <mxGeometry x="105" y="198" width="30" height="30" as="geometry" />
        </mxCell>
        <mxCell id="3UyYihiyJlNhXBjqAL7T-11" value="1" style="text;html=1;align=center;verticalAlign=middle;resizable=0;points=[];autosize=1;strokeColor=none;fillColor=none;" parent="neZ0o-FFOhgT2ZGjuYdi-1" vertex="1">
          <mxGeometry x="130" y="210" width="30" height="30" as="geometry" />
        </mxCell>
        <mxCell id="3UyYihiyJlNhXBjqAL7T-14" style="edgeStyle=orthogonalEdgeStyle;rounded=0;orthogonalLoop=1;jettySize=auto;html=1;entryX=0;entryY=0.5;entryDx=0;entryDy=0;" parent="neZ0o-FFOhgT2ZGjuYdi-1" source="3UyYihiyJlNhXBjqAL7T-12" target="3UyYihiyJlNhXBjqAL7T-6" edge="1">
          <mxGeometry relative="1" as="geometry">
            <Array as="points">
              <mxPoint x="130" y="400" />
              <mxPoint y="400" />
              <mxPoint y="180" />
            </Array>
          </mxGeometry>
        </mxCell>
        <mxCell id="3UyYihiyJlNhXBjqAL7T-12" value="cout &amp;lt;&amp;lt; ((i == n - 1) ? &quot;}\n\n&quot; : &quot;, &quot;);" style="shape=parallelogram;perimeter=parallelogramPerimeter;whiteSpace=wrap;html=1;fixedSize=1;" parent="neZ0o-FFOhgT2ZGjuYdi-1" vertex="1">
          <mxGeometry x="20" y="320" width="220" height="40" as="geometry" />
        </mxCell>
        <mxCell id="3UyYihiyJlNhXBjqAL7T-15" value="}" style="text;html=1;align=center;verticalAlign=middle;resizable=0;points=[];autosize=1;strokeColor=none;fillColor=none;" parent="neZ0o-FFOhgT2ZGjuYdi-1" vertex="1">
          <mxGeometry x="125" y="358" width="30" height="30" as="geometry" />
        </mxCell>
        <mxCell id="3UyYihiyJlNhXBjqAL7T-17" value="0" style="text;html=1;align=center;verticalAlign=middle;resizable=0;points=[];autosize=1;strokeColor=none;fillColor=none;" parent="neZ0o-FFOhgT2ZGjuYdi-1" vertex="1">
          <mxGeometry x="240" y="150" width="30" height="30" as="geometry" />
        </mxCell>
        <mxCell id="3UyYihiyJlNhXBjqAL7T-18" value="return;" style="ellipse;whiteSpace=wrap;html=1;" parent="neZ0o-FFOhgT2ZGjuYdi-1" vertex="1">
          <mxGeometry x="70" y="440" width="120" height="40" as="geometry" />
        </mxCell>
        <mxCell id="3UyYihiyJlNhXBjqAL7T-19" value="}" style="text;html=1;align=center;verticalAlign=middle;resizable=0;points=[];autosize=1;strokeColor=none;fillColor=none;" parent="neZ0o-FFOhgT2ZGjuYdi-1" vertex="1">
          <mxGeometry x="125" y="478" width="30" height="30" as="geometry" />
        </mxCell>
      </root>
    </mxGraphModel>
  </diagram>
  <diagram id="TxIUnB7YMYT8UWrG7Zb6" name="fill_2d">
    <mxGraphModel dx="1290" dy="717" grid="1" gridSize="10" guides="1" tooltips="1" connect="1" arrows="1" fold="1" page="1" pageScale="1" pageWidth="827" pageHeight="1169" math="0" shadow="0">
      <root>
        <mxCell id="0" />
        <mxCell id="1" parent="0" />
        <mxCell id="Wt-2ZDPyi5i84E9Y9rl--1" value="" style="group" vertex="1" connectable="0" parent="1">
          <mxGeometry x="300" y="78" width="305" height="472" as="geometry" />
        </mxCell>
        <mxCell id="6NJ8fLSIjuKGuAv33odX-4" value="" style="edgeStyle=orthogonalEdgeStyle;rounded=0;orthogonalLoop=1;jettySize=auto;html=1;" parent="Wt-2ZDPyi5i84E9Y9rl--1" source="6NJ8fLSIjuKGuAv33odX-2" target="6NJ8fLSIjuKGuAv33odX-3" edge="1">
          <mxGeometry relative="1" as="geometry" />
        </mxCell>
        <mxCell id="6NJ8fLSIjuKGuAv33odX-2" value="void fill_2d(int arr[][col], int row, int col)" style="shape=process;whiteSpace=wrap;html=1;backgroundOutline=1;" parent="Wt-2ZDPyi5i84E9Y9rl--1" vertex="1">
          <mxGeometry x="10" width="260" height="40" as="geometry" />
        </mxCell>
        <mxCell id="6NJ8fLSIjuKGuAv33odX-7" value="" style="edgeStyle=orthogonalEdgeStyle;rounded=0;orthogonalLoop=1;jettySize=auto;html=1;" parent="Wt-2ZDPyi5i84E9Y9rl--1" source="6NJ8fLSIjuKGuAv33odX-3" target="6NJ8fLSIjuKGuAv33odX-6" edge="1">
          <mxGeometry relative="1" as="geometry" />
        </mxCell>
        <mxCell id="6NJ8fLSIjuKGuAv33odX-15" style="edgeStyle=orthogonalEdgeStyle;rounded=0;orthogonalLoop=1;jettySize=auto;html=1;entryX=0.5;entryY=0;entryDx=0;entryDy=0;" parent="Wt-2ZDPyi5i84E9Y9rl--1" source="6NJ8fLSIjuKGuAv33odX-3" target="6NJ8fLSIjuKGuAv33odX-17" edge="1">
          <mxGeometry relative="1" as="geometry">
            <mxPoint x="140" y="402" as="targetPoint" />
            <Array as="points">
              <mxPoint x="300" y="102" />
              <mxPoint x="300" y="362" />
              <mxPoint x="140" y="362" />
            </Array>
          </mxGeometry>
        </mxCell>
        <mxCell id="6NJ8fLSIjuKGuAv33odX-3" value="for (int i = 0; i &amp;lt; row; i++)" style="shape=hexagon;perimeter=hexagonPerimeter2;whiteSpace=wrap;html=1;fixedSize=1;" parent="Wt-2ZDPyi5i84E9Y9rl--1" vertex="1">
          <mxGeometry x="60" y="82" width="160" height="40" as="geometry" />
        </mxCell>
        <mxCell id="6NJ8fLSIjuKGuAv33odX-5" value="{" style="text;html=1;align=center;verticalAlign=middle;resizable=0;points=[];autosize=1;strokeColor=none;fillColor=none;" parent="Wt-2ZDPyi5i84E9Y9rl--1" vertex="1">
          <mxGeometry x="115" y="40" width="30" height="30" as="geometry" />
        </mxCell>
        <mxCell id="6NJ8fLSIjuKGuAv33odX-10" value="" style="edgeStyle=orthogonalEdgeStyle;rounded=0;orthogonalLoop=1;jettySize=auto;html=1;" parent="Wt-2ZDPyi5i84E9Y9rl--1" source="6NJ8fLSIjuKGuAv33odX-6" target="6NJ8fLSIjuKGuAv33odX-9" edge="1">
          <mxGeometry relative="1" as="geometry" />
        </mxCell>
        <mxCell id="6NJ8fLSIjuKGuAv33odX-13" style="edgeStyle=orthogonalEdgeStyle;rounded=0;orthogonalLoop=1;jettySize=auto;html=1;entryX=0;entryY=0.5;entryDx=0;entryDy=0;" parent="Wt-2ZDPyi5i84E9Y9rl--1" source="6NJ8fLSIjuKGuAv33odX-6" target="6NJ8fLSIjuKGuAv33odX-3" edge="1">
          <mxGeometry relative="1" as="geometry">
            <Array as="points">
              <mxPoint x="260" y="182" />
              <mxPoint x="260" y="342" />
              <mxPoint y="342" />
              <mxPoint y="102" />
            </Array>
          </mxGeometry>
        </mxCell>
        <mxCell id="6NJ8fLSIjuKGuAv33odX-6" value="for (int j = 0; j &amp;lt; col; j++)" style="shape=hexagon;perimeter=hexagonPerimeter2;whiteSpace=wrap;html=1;fixedSize=1;" parent="Wt-2ZDPyi5i84E9Y9rl--1" vertex="1">
          <mxGeometry x="60" y="162" width="160" height="40" as="geometry" />
        </mxCell>
        <mxCell id="6NJ8fLSIjuKGuAv33odX-8" value="1" style="text;html=1;align=center;verticalAlign=middle;resizable=0;points=[];autosize=1;strokeColor=none;fillColor=none;" parent="Wt-2ZDPyi5i84E9Y9rl--1" vertex="1">
          <mxGeometry x="135" y="132" width="30" height="30" as="geometry" />
        </mxCell>
        <mxCell id="6NJ8fLSIjuKGuAv33odX-12" style="edgeStyle=orthogonalEdgeStyle;rounded=0;orthogonalLoop=1;jettySize=auto;html=1;entryX=0;entryY=0.5;entryDx=0;entryDy=0;" parent="Wt-2ZDPyi5i84E9Y9rl--1" source="6NJ8fLSIjuKGuAv33odX-9" target="6NJ8fLSIjuKGuAv33odX-6" edge="1">
          <mxGeometry relative="1" as="geometry">
            <Array as="points">
              <mxPoint x="140" y="302" />
              <mxPoint x="35" y="302" />
              <mxPoint x="35" y="182" />
            </Array>
          </mxGeometry>
        </mxCell>
        <mxCell id="6NJ8fLSIjuKGuAv33odX-9" value="arr[i][j] = i * col + j + 1;" style="whiteSpace=wrap;html=1;" parent="Wt-2ZDPyi5i84E9Y9rl--1" vertex="1">
          <mxGeometry x="55" y="242" width="170" height="40" as="geometry" />
        </mxCell>
        <mxCell id="6NJ8fLSIjuKGuAv33odX-11" value="1" style="text;html=1;align=center;verticalAlign=middle;resizable=0;points=[];autosize=1;strokeColor=none;fillColor=none;" parent="Wt-2ZDPyi5i84E9Y9rl--1" vertex="1">
          <mxGeometry x="135" y="212" width="30" height="30" as="geometry" />
        </mxCell>
        <mxCell id="6NJ8fLSIjuKGuAv33odX-14" value="0" style="text;html=1;align=center;verticalAlign=middle;resizable=0;points=[];autosize=1;strokeColor=none;fillColor=none;" parent="Wt-2ZDPyi5i84E9Y9rl--1" vertex="1">
          <mxGeometry x="230" y="152" width="30" height="30" as="geometry" />
        </mxCell>
        <mxCell id="6NJ8fLSIjuKGuAv33odX-16" value="0" style="text;html=1;align=center;verticalAlign=middle;resizable=0;points=[];autosize=1;strokeColor=none;fillColor=none;" parent="Wt-2ZDPyi5i84E9Y9rl--1" vertex="1">
          <mxGeometry x="275" y="72" width="30" height="30" as="geometry" />
        </mxCell>
        <mxCell id="6NJ8fLSIjuKGuAv33odX-17" value="return;" style="ellipse;whiteSpace=wrap;html=1;" parent="Wt-2ZDPyi5i84E9Y9rl--1" vertex="1">
          <mxGeometry x="80" y="402" width="120" height="40" as="geometry" />
        </mxCell>
        <mxCell id="6NJ8fLSIjuKGuAv33odX-18" value="}" style="text;html=1;align=center;verticalAlign=middle;resizable=0;points=[];autosize=1;strokeColor=none;fillColor=none;" parent="Wt-2ZDPyi5i84E9Y9rl--1" vertex="1">
          <mxGeometry x="135" y="442" width="30" height="30" as="geometry" />
        </mxCell>
      </root>
    </mxGraphModel>
  </diagram>
  <diagram id="o7n2A2_6qt-sd948BYKh" name="fill_1d">
    <mxGraphModel dx="1843" dy="1024" grid="1" gridSize="10" guides="1" tooltips="1" connect="1" arrows="1" fold="1" page="1" pageScale="1" pageWidth="827" pageHeight="1169" math="0" shadow="0">
      <root>
        <mxCell id="0" />
        <mxCell id="1" parent="0" />
        <mxCell id="_s3tUkmeYDNepmHx9ZcC-3" value="" style="group" vertex="1" connectable="0" parent="1">
          <mxGeometry x="310" y="78" width="719.8899999999999" height="894" as="geometry" />
        </mxCell>
        <mxCell id="s-BDJt7aGIZV9cYyaFcx-27" value="" style="edgeStyle=orthogonalEdgeStyle;rounded=0;orthogonalLoop=1;jettySize=auto;html=1;" parent="_s3tUkmeYDNepmHx9ZcC-3" source="s-BDJt7aGIZV9cYyaFcx-29" target="s-BDJt7aGIZV9cYyaFcx-32" edge="1">
          <mxGeometry relative="1" as="geometry" />
        </mxCell>
        <mxCell id="s-BDJt7aGIZV9cYyaFcx-28" style="edgeStyle=orthogonalEdgeStyle;rounded=0;orthogonalLoop=1;jettySize=auto;html=1;" parent="_s3tUkmeYDNepmHx9ZcC-3" source="s-BDJt7aGIZV9cYyaFcx-29" target="s-BDJt7aGIZV9cYyaFcx-43" edge="1">
          <mxGeometry relative="1" as="geometry">
            <mxPoint x="549.89" y="826" as="targetPoint" />
            <Array as="points">
              <mxPoint x="709.89" y="406" />
              <mxPoint x="709.89" y="786" />
            </Array>
          </mxGeometry>
        </mxCell>
        <mxCell id="s-BDJt7aGIZV9cYyaFcx-29" value="for (int j = sdvig_col; j &amp;lt; col + sdvig_col; j++)" style="shape=hexagon;perimeter=hexagonPerimeter2;whiteSpace=wrap;html=1;fixedSize=1;" parent="_s3tUkmeYDNepmHx9ZcC-3" vertex="1">
          <mxGeometry x="409.89" y="386" width="280" height="40" as="geometry" />
        </mxCell>
        <mxCell id="s-BDJt7aGIZV9cYyaFcx-30" value="" style="edgeStyle=orthogonalEdgeStyle;rounded=0;orthogonalLoop=1;jettySize=auto;html=1;" parent="_s3tUkmeYDNepmHx9ZcC-3" source="s-BDJt7aGIZV9cYyaFcx-32" target="s-BDJt7aGIZV9cYyaFcx-35" edge="1">
          <mxGeometry relative="1" as="geometry" />
        </mxCell>
        <mxCell id="s-BDJt7aGIZV9cYyaFcx-31" style="edgeStyle=orthogonalEdgeStyle;rounded=0;orthogonalLoop=1;jettySize=auto;html=1;entryX=0;entryY=0.5;entryDx=0;entryDy=0;" parent="_s3tUkmeYDNepmHx9ZcC-3" source="s-BDJt7aGIZV9cYyaFcx-32" target="s-BDJt7aGIZV9cYyaFcx-29" edge="1">
          <mxGeometry relative="1" as="geometry">
            <Array as="points">
              <mxPoint x="669.89" y="486" />
              <mxPoint x="669.89" y="746" />
              <mxPoint x="389.89" y="746" />
              <mxPoint x="389.89" y="406" />
            </Array>
          </mxGeometry>
        </mxCell>
        <mxCell id="s-BDJt7aGIZV9cYyaFcx-32" value="for (int i = 0; i &amp;lt; row; i++)" style="shape=hexagon;perimeter=hexagonPerimeter2;whiteSpace=wrap;html=1;fixedSize=1;" parent="_s3tUkmeYDNepmHx9ZcC-3" vertex="1">
          <mxGeometry x="469.89" y="466" width="160" height="40" as="geometry" />
        </mxCell>
        <mxCell id="s-BDJt7aGIZV9cYyaFcx-33" value="1" style="text;html=1;align=center;verticalAlign=middle;resizable=0;points=[];autosize=1;strokeColor=none;fillColor=none;" parent="_s3tUkmeYDNepmHx9ZcC-3" vertex="1">
          <mxGeometry x="544.89" y="436" width="30" height="30" as="geometry" />
        </mxCell>
        <mxCell id="s-BDJt7aGIZV9cYyaFcx-34" value="" style="edgeStyle=orthogonalEdgeStyle;rounded=0;orthogonalLoop=1;jettySize=auto;html=1;" parent="_s3tUkmeYDNepmHx9ZcC-3" source="s-BDJt7aGIZV9cYyaFcx-35" target="s-BDJt7aGIZV9cYyaFcx-39" edge="1">
          <mxGeometry relative="1" as="geometry" />
        </mxCell>
        <mxCell id="s-BDJt7aGIZV9cYyaFcx-35" value="arr_1d[ind] = arr[i][j % col];" style="whiteSpace=wrap;html=1;" parent="_s3tUkmeYDNepmHx9ZcC-3" vertex="1">
          <mxGeometry x="449.89" y="546" width="200" height="40" as="geometry" />
        </mxCell>
        <mxCell id="s-BDJt7aGIZV9cYyaFcx-36" value="1" style="text;html=1;align=center;verticalAlign=middle;resizable=0;points=[];autosize=1;strokeColor=none;fillColor=none;" parent="_s3tUkmeYDNepmHx9ZcC-3" vertex="1">
          <mxGeometry x="544.89" y="516" width="30" height="30" as="geometry" />
        </mxCell>
        <mxCell id="s-BDJt7aGIZV9cYyaFcx-37" value="{" style="text;html=1;align=center;verticalAlign=middle;resizable=0;points=[];autosize=1;strokeColor=none;fillColor=none;" parent="_s3tUkmeYDNepmHx9ZcC-3" vertex="1">
          <mxGeometry x="524.89" y="506" width="30" height="30" as="geometry" />
        </mxCell>
        <mxCell id="s-BDJt7aGIZV9cYyaFcx-38" style="edgeStyle=orthogonalEdgeStyle;rounded=0;orthogonalLoop=1;jettySize=auto;html=1;entryX=0;entryY=0.5;entryDx=0;entryDy=0;" parent="_s3tUkmeYDNepmHx9ZcC-3" source="s-BDJt7aGIZV9cYyaFcx-39" target="s-BDJt7aGIZV9cYyaFcx-32" edge="1">
          <mxGeometry relative="1" as="geometry">
            <Array as="points">
              <mxPoint x="549.89" y="706" />
              <mxPoint x="429.89" y="706" />
              <mxPoint x="429.89" y="486" />
            </Array>
          </mxGeometry>
        </mxCell>
        <mxCell id="s-BDJt7aGIZV9cYyaFcx-39" value="ind++;" style="whiteSpace=wrap;html=1;" parent="_s3tUkmeYDNepmHx9ZcC-3" vertex="1">
          <mxGeometry x="489.89" y="626" width="120" height="40" as="geometry" />
        </mxCell>
        <mxCell id="s-BDJt7aGIZV9cYyaFcx-40" value="}" style="text;html=1;align=center;verticalAlign=middle;resizable=0;points=[];autosize=1;strokeColor=none;fillColor=none;" parent="_s3tUkmeYDNepmHx9ZcC-3" vertex="1">
          <mxGeometry x="544.89" y="664" width="30" height="30" as="geometry" />
        </mxCell>
        <mxCell id="s-BDJt7aGIZV9cYyaFcx-41" value="0" style="text;html=1;align=center;verticalAlign=middle;resizable=0;points=[];autosize=1;strokeColor=none;fillColor=none;" parent="_s3tUkmeYDNepmHx9ZcC-3" vertex="1">
          <mxGeometry x="644.89" y="454" width="30" height="30" as="geometry" />
        </mxCell>
        <mxCell id="s-BDJt7aGIZV9cYyaFcx-42" value="0" style="text;html=1;align=center;verticalAlign=middle;resizable=0;points=[];autosize=1;strokeColor=none;fillColor=none;" parent="_s3tUkmeYDNepmHx9ZcC-3" vertex="1">
          <mxGeometry x="689.89" y="376" width="30" height="30" as="geometry" />
        </mxCell>
        <mxCell id="s-BDJt7aGIZV9cYyaFcx-43" value="return;" style="ellipse;whiteSpace=wrap;html=1;" parent="_s3tUkmeYDNepmHx9ZcC-3" vertex="1">
          <mxGeometry x="489.89" y="826" width="120" height="40" as="geometry" />
        </mxCell>
        <mxCell id="s-BDJt7aGIZV9cYyaFcx-44" value="}" style="text;html=1;align=center;verticalAlign=middle;resizable=0;points=[];autosize=1;strokeColor=none;fillColor=none;" parent="_s3tUkmeYDNepmHx9ZcC-3" vertex="1">
          <mxGeometry x="544.89" y="864" width="30" height="30" as="geometry" />
        </mxCell>
        <mxCell id="s-BDJt7aGIZV9cYyaFcx-25" style="edgeStyle=orthogonalEdgeStyle;rounded=0;orthogonalLoop=1;jettySize=auto;html=1;entryX=0.5;entryY=0;entryDx=0;entryDy=0;" parent="_s3tUkmeYDNepmHx9ZcC-3" source="s-BDJt7aGIZV9cYyaFcx-10" edge="1" target="s-BDJt7aGIZV9cYyaFcx-29">
          <mxGeometry relative="1" as="geometry">
            <mxPoint x="170" y="762" as="targetPoint" />
            <Array as="points">
              <mxPoint x="550" y="342" />
            </Array>
          </mxGeometry>
        </mxCell>
        <mxCell id="s-BDJt7aGIZV9cYyaFcx-4" value="" style="edgeStyle=orthogonalEdgeStyle;rounded=0;orthogonalLoop=1;jettySize=auto;html=1;" parent="_s3tUkmeYDNepmHx9ZcC-3" source="s-BDJt7aGIZV9cYyaFcx-2" target="s-BDJt7aGIZV9cYyaFcx-3" edge="1">
          <mxGeometry relative="1" as="geometry" />
        </mxCell>
        <mxCell id="s-BDJt7aGIZV9cYyaFcx-2" value="void fill_1d(int arr_1d[], int arr[][col], int row, int col)" style="shape=process;whiteSpace=wrap;html=1;backgroundOutline=1;" parent="_s3tUkmeYDNepmHx9ZcC-3" vertex="1">
          <mxGeometry width="340" height="40" as="geometry" />
        </mxCell>
        <mxCell id="s-BDJt7aGIZV9cYyaFcx-7" value="" style="edgeStyle=orthogonalEdgeStyle;rounded=0;orthogonalLoop=1;jettySize=auto;html=1;" parent="_s3tUkmeYDNepmHx9ZcC-3" source="s-BDJt7aGIZV9cYyaFcx-3" target="s-BDJt7aGIZV9cYyaFcx-6" edge="1">
          <mxGeometry relative="1" as="geometry" />
        </mxCell>
        <mxCell id="s-BDJt7aGIZV9cYyaFcx-3" value="int sdvig_row = rand() % (row - 1) + 1;" style="whiteSpace=wrap;html=1;" parent="_s3tUkmeYDNepmHx9ZcC-3" vertex="1">
          <mxGeometry x="60" y="82" width="220" height="40" as="geometry" />
        </mxCell>
        <mxCell id="s-BDJt7aGIZV9cYyaFcx-5" value="{" style="text;html=1;align=center;verticalAlign=middle;resizable=0;points=[];autosize=1;strokeColor=none;fillColor=none;" parent="_s3tUkmeYDNepmHx9ZcC-3" vertex="1">
          <mxGeometry x="145" y="40" width="30" height="30" as="geometry" />
        </mxCell>
        <mxCell id="s-BDJt7aGIZV9cYyaFcx-9" value="" style="edgeStyle=orthogonalEdgeStyle;rounded=0;orthogonalLoop=1;jettySize=auto;html=1;" parent="_s3tUkmeYDNepmHx9ZcC-3" source="s-BDJt7aGIZV9cYyaFcx-6" target="s-BDJt7aGIZV9cYyaFcx-8" edge="1">
          <mxGeometry relative="1" as="geometry" />
        </mxCell>
        <mxCell id="s-BDJt7aGIZV9cYyaFcx-6" value="int sdvig_col = rand() % (col - 1) + 1;" style="whiteSpace=wrap;html=1;" parent="_s3tUkmeYDNepmHx9ZcC-3" vertex="1">
          <mxGeometry x="60" y="162" width="220" height="40" as="geometry" />
        </mxCell>
        <mxCell id="s-BDJt7aGIZV9cYyaFcx-11" value="" style="edgeStyle=orthogonalEdgeStyle;rounded=0;orthogonalLoop=1;jettySize=auto;html=1;" parent="_s3tUkmeYDNepmHx9ZcC-3" source="s-BDJt7aGIZV9cYyaFcx-8" target="s-BDJt7aGIZV9cYyaFcx-10" edge="1">
          <mxGeometry relative="1" as="geometry" />
        </mxCell>
        <mxCell id="s-BDJt7aGIZV9cYyaFcx-8" value="int ind = 0;" style="whiteSpace=wrap;html=1;" parent="_s3tUkmeYDNepmHx9ZcC-3" vertex="1">
          <mxGeometry x="110" y="242" width="120" height="40" as="geometry" />
        </mxCell>
        <mxCell id="s-BDJt7aGIZV9cYyaFcx-13" value="" style="edgeStyle=orthogonalEdgeStyle;rounded=0;orthogonalLoop=1;jettySize=auto;html=1;" parent="_s3tUkmeYDNepmHx9ZcC-3" source="s-BDJt7aGIZV9cYyaFcx-10" target="s-BDJt7aGIZV9cYyaFcx-12" edge="1">
          <mxGeometry relative="1" as="geometry" />
        </mxCell>
        <mxCell id="s-BDJt7aGIZV9cYyaFcx-10" value="for (int i = sdvig_row; i &amp;lt; row + sdvig_row; i++)" style="shape=hexagon;perimeter=hexagonPerimeter2;whiteSpace=wrap;html=1;fixedSize=1;" parent="_s3tUkmeYDNepmHx9ZcC-3" vertex="1">
          <mxGeometry x="30" y="322" width="280" height="40" as="geometry" />
        </mxCell>
        <mxCell id="s-BDJt7aGIZV9cYyaFcx-16" value="" style="edgeStyle=orthogonalEdgeStyle;rounded=0;orthogonalLoop=1;jettySize=auto;html=1;" parent="_s3tUkmeYDNepmHx9ZcC-3" source="s-BDJt7aGIZV9cYyaFcx-12" target="s-BDJt7aGIZV9cYyaFcx-15" edge="1">
          <mxGeometry relative="1" as="geometry" />
        </mxCell>
        <mxCell id="s-BDJt7aGIZV9cYyaFcx-23" style="edgeStyle=orthogonalEdgeStyle;rounded=0;orthogonalLoop=1;jettySize=auto;html=1;entryX=0;entryY=0.5;entryDx=0;entryDy=0;" parent="_s3tUkmeYDNepmHx9ZcC-3" source="s-BDJt7aGIZV9cYyaFcx-12" target="s-BDJt7aGIZV9cYyaFcx-10" edge="1">
          <mxGeometry relative="1" as="geometry">
            <Array as="points">
              <mxPoint x="290" y="422" />
              <mxPoint x="290" y="682" />
              <mxPoint x="10" y="682" />
              <mxPoint x="10" y="342" />
            </Array>
          </mxGeometry>
        </mxCell>
        <mxCell id="s-BDJt7aGIZV9cYyaFcx-12" value="for (int j = 0; j &amp;lt; col; j++)" style="shape=hexagon;perimeter=hexagonPerimeter2;whiteSpace=wrap;html=1;fixedSize=1;" parent="_s3tUkmeYDNepmHx9ZcC-3" vertex="1">
          <mxGeometry x="90" y="402" width="160" height="40" as="geometry" />
        </mxCell>
        <mxCell id="s-BDJt7aGIZV9cYyaFcx-14" value="1" style="text;html=1;align=center;verticalAlign=middle;resizable=0;points=[];autosize=1;strokeColor=none;fillColor=none;" parent="_s3tUkmeYDNepmHx9ZcC-3" vertex="1">
          <mxGeometry x="165" y="372" width="30" height="30" as="geometry" />
        </mxCell>
        <mxCell id="s-BDJt7aGIZV9cYyaFcx-20" value="" style="edgeStyle=orthogonalEdgeStyle;rounded=0;orthogonalLoop=1;jettySize=auto;html=1;" parent="_s3tUkmeYDNepmHx9ZcC-3" source="s-BDJt7aGIZV9cYyaFcx-15" target="s-BDJt7aGIZV9cYyaFcx-19" edge="1">
          <mxGeometry relative="1" as="geometry" />
        </mxCell>
        <mxCell id="s-BDJt7aGIZV9cYyaFcx-15" value="arr_1d[ind] = arr[i % row][j];" style="whiteSpace=wrap;html=1;" parent="_s3tUkmeYDNepmHx9ZcC-3" vertex="1">
          <mxGeometry x="70" y="482" width="200" height="40" as="geometry" />
        </mxCell>
        <mxCell id="s-BDJt7aGIZV9cYyaFcx-17" value="1" style="text;html=1;align=center;verticalAlign=middle;resizable=0;points=[];autosize=1;strokeColor=none;fillColor=none;" parent="_s3tUkmeYDNepmHx9ZcC-3" vertex="1">
          <mxGeometry x="165" y="452" width="30" height="30" as="geometry" />
        </mxCell>
        <mxCell id="s-BDJt7aGIZV9cYyaFcx-18" value="{" style="text;html=1;align=center;verticalAlign=middle;resizable=0;points=[];autosize=1;strokeColor=none;fillColor=none;" parent="_s3tUkmeYDNepmHx9ZcC-3" vertex="1">
          <mxGeometry x="145" y="442" width="30" height="30" as="geometry" />
        </mxCell>
        <mxCell id="s-BDJt7aGIZV9cYyaFcx-21" style="edgeStyle=orthogonalEdgeStyle;rounded=0;orthogonalLoop=1;jettySize=auto;html=1;entryX=0;entryY=0.5;entryDx=0;entryDy=0;" parent="_s3tUkmeYDNepmHx9ZcC-3" source="s-BDJt7aGIZV9cYyaFcx-19" target="s-BDJt7aGIZV9cYyaFcx-12" edge="1">
          <mxGeometry relative="1" as="geometry">
            <Array as="points">
              <mxPoint x="170" y="642" />
              <mxPoint x="50" y="642" />
              <mxPoint x="50" y="422" />
            </Array>
          </mxGeometry>
        </mxCell>
        <mxCell id="s-BDJt7aGIZV9cYyaFcx-19" value="ind++;" style="whiteSpace=wrap;html=1;" parent="_s3tUkmeYDNepmHx9ZcC-3" vertex="1">
          <mxGeometry x="110" y="562" width="120" height="40" as="geometry" />
        </mxCell>
        <mxCell id="s-BDJt7aGIZV9cYyaFcx-22" value="}" style="text;html=1;align=center;verticalAlign=middle;resizable=0;points=[];autosize=1;strokeColor=none;fillColor=none;" parent="_s3tUkmeYDNepmHx9ZcC-3" vertex="1">
          <mxGeometry x="165" y="600" width="30" height="30" as="geometry" />
        </mxCell>
        <mxCell id="s-BDJt7aGIZV9cYyaFcx-24" value="0" style="text;html=1;align=center;verticalAlign=middle;resizable=0;points=[];autosize=1;strokeColor=none;fillColor=none;" parent="_s3tUkmeYDNepmHx9ZcC-3" vertex="1">
          <mxGeometry x="265" y="390" width="30" height="30" as="geometry" />
        </mxCell>
        <mxCell id="s-BDJt7aGIZV9cYyaFcx-26" value="0" style="text;html=1;align=center;verticalAlign=middle;resizable=0;points=[];autosize=1;strokeColor=none;fillColor=none;" parent="_s3tUkmeYDNepmHx9ZcC-3" vertex="1">
          <mxGeometry x="517" y="312" width="30" height="30" as="geometry" />
        </mxCell>
      </root>
    </mxGraphModel>
  </diagram>
  <diagram id="omB5fbOor-Ze7-ie95ki" name="back">
    <mxGraphModel dx="1720" dy="956" grid="1" gridSize="10" guides="1" tooltips="1" connect="1" arrows="1" fold="1" page="1" pageScale="1" pageWidth="827" pageHeight="1169" math="0" shadow="0">
      <root>
        <mxCell id="0" />
        <mxCell id="1" parent="0" />
        <mxCell id="hYGetJ4R6BA0Ou6j2oZ7-1" value="" style="group" vertex="1" connectable="0" parent="1">
          <mxGeometry x="270" y="80" width="340" height="788" as="geometry" />
        </mxCell>
        <mxCell id="1cwCdqXZDsxQNq5N9zXh-4" value="" style="edgeStyle=orthogonalEdgeStyle;rounded=0;orthogonalLoop=1;jettySize=auto;html=1;" parent="hYGetJ4R6BA0Ou6j2oZ7-1" source="1cwCdqXZDsxQNq5N9zXh-2" target="1cwCdqXZDsxQNq5N9zXh-3" edge="1">
          <mxGeometry relative="1" as="geometry" />
        </mxCell>
        <mxCell id="1cwCdqXZDsxQNq5N9zXh-2" value="void back(int arr_1d[], int n, int arr[][col], int row, int col)" style="shape=process;whiteSpace=wrap;html=1;backgroundOutline=1;size=0.029411764705882353;" parent="hYGetJ4R6BA0Ou6j2oZ7-1" vertex="1">
          <mxGeometry width="340" height="40" as="geometry" />
        </mxCell>
        <mxCell id="1cwCdqXZDsxQNq5N9zXh-7" value="" style="edgeStyle=orthogonalEdgeStyle;rounded=0;orthogonalLoop=1;jettySize=auto;html=1;" parent="hYGetJ4R6BA0Ou6j2oZ7-1" source="1cwCdqXZDsxQNq5N9zXh-3" target="1cwCdqXZDsxQNq5N9zXh-6" edge="1">
          <mxGeometry relative="1" as="geometry" />
        </mxCell>
        <mxCell id="1cwCdqXZDsxQNq5N9zXh-23" style="edgeStyle=orthogonalEdgeStyle;rounded=0;orthogonalLoop=1;jettySize=auto;html=1;entryX=0.5;entryY=0;entryDx=0;entryDy=0;" parent="hYGetJ4R6BA0Ou6j2oZ7-1" source="1cwCdqXZDsxQNq5N9zXh-3" target="1cwCdqXZDsxQNq5N9zXh-25" edge="1">
          <mxGeometry relative="1" as="geometry">
            <mxPoint x="170" y="720" as="targetPoint" />
            <Array as="points">
              <mxPoint x="310" y="100" />
              <mxPoint x="310" y="680" />
              <mxPoint x="170" y="680" />
            </Array>
          </mxGeometry>
        </mxCell>
        <mxCell id="1cwCdqXZDsxQNq5N9zXh-3" value="for (int i = 0; i &amp;lt; n / 2; i++)" style="shape=hexagon;perimeter=hexagonPerimeter2;whiteSpace=wrap;html=1;fixedSize=1;" parent="hYGetJ4R6BA0Ou6j2oZ7-1" vertex="1">
          <mxGeometry x="90" y="80" width="160" height="40" as="geometry" />
        </mxCell>
        <mxCell id="1cwCdqXZDsxQNq5N9zXh-5" value="{" style="text;html=1;align=center;verticalAlign=middle;resizable=0;points=[];autosize=1;strokeColor=none;fillColor=none;" parent="hYGetJ4R6BA0Ou6j2oZ7-1" vertex="1">
          <mxGeometry x="145" y="38" width="30" height="30" as="geometry" />
        </mxCell>
        <mxCell id="1cwCdqXZDsxQNq5N9zXh-11" value="" style="edgeStyle=orthogonalEdgeStyle;rounded=0;orthogonalLoop=1;jettySize=auto;html=1;" parent="hYGetJ4R6BA0Ou6j2oZ7-1" source="1cwCdqXZDsxQNq5N9zXh-6" target="1cwCdqXZDsxQNq5N9zXh-10" edge="1">
          <mxGeometry relative="1" as="geometry" />
        </mxCell>
        <mxCell id="1cwCdqXZDsxQNq5N9zXh-6" value="int t = arr_1d[i];" style="whiteSpace=wrap;html=1;" parent="hYGetJ4R6BA0Ou6j2oZ7-1" vertex="1">
          <mxGeometry x="110" y="160" width="120" height="40" as="geometry" />
        </mxCell>
        <mxCell id="1cwCdqXZDsxQNq5N9zXh-8" value="{" style="text;html=1;align=center;verticalAlign=middle;resizable=0;points=[];autosize=1;strokeColor=none;fillColor=none;" parent="hYGetJ4R6BA0Ou6j2oZ7-1" vertex="1">
          <mxGeometry x="145" y="118" width="30" height="30" as="geometry" />
        </mxCell>
        <mxCell id="1cwCdqXZDsxQNq5N9zXh-9" value="1" style="text;html=1;align=center;verticalAlign=middle;resizable=0;points=[];autosize=1;strokeColor=none;fillColor=none;" parent="hYGetJ4R6BA0Ou6j2oZ7-1" vertex="1">
          <mxGeometry x="165" y="130" width="30" height="30" as="geometry" />
        </mxCell>
        <mxCell id="1cwCdqXZDsxQNq5N9zXh-13" value="" style="edgeStyle=orthogonalEdgeStyle;rounded=0;orthogonalLoop=1;jettySize=auto;html=1;" parent="hYGetJ4R6BA0Ou6j2oZ7-1" source="1cwCdqXZDsxQNq5N9zXh-10" target="1cwCdqXZDsxQNq5N9zXh-12" edge="1">
          <mxGeometry relative="1" as="geometry" />
        </mxCell>
        <mxCell id="1cwCdqXZDsxQNq5N9zXh-10" value="int j = n / 2;" style="whiteSpace=wrap;html=1;" parent="hYGetJ4R6BA0Ou6j2oZ7-1" vertex="1">
          <mxGeometry x="110" y="240" width="120" height="40" as="geometry" />
        </mxCell>
        <mxCell id="1cwCdqXZDsxQNq5N9zXh-15" value="" style="edgeStyle=orthogonalEdgeStyle;rounded=0;orthogonalLoop=1;jettySize=auto;html=1;" parent="hYGetJ4R6BA0Ou6j2oZ7-1" source="1cwCdqXZDsxQNq5N9zXh-12" target="1cwCdqXZDsxQNq5N9zXh-14" edge="1">
          <mxGeometry relative="1" as="geometry" />
        </mxCell>
        <mxCell id="1cwCdqXZDsxQNq5N9zXh-18" style="edgeStyle=orthogonalEdgeStyle;rounded=0;orthogonalLoop=1;jettySize=auto;html=1;entryX=0.5;entryY=0;entryDx=0;entryDy=0;entryPerimeter=0;" parent="hYGetJ4R6BA0Ou6j2oZ7-1" source="1cwCdqXZDsxQNq5N9zXh-12" target="1cwCdqXZDsxQNq5N9zXh-21" edge="1">
          <mxGeometry relative="1" as="geometry">
            <mxPoint x="170" y="560" as="targetPoint" />
            <Array as="points">
              <mxPoint x="270" y="340" />
              <mxPoint x="270" y="520" />
              <mxPoint x="170" y="520" />
            </Array>
          </mxGeometry>
        </mxCell>
        <mxCell id="1cwCdqXZDsxQNq5N9zXh-12" value="while (arr_1d[j] != t)" style="rhombus;whiteSpace=wrap;html=1;" parent="hYGetJ4R6BA0Ou6j2oZ7-1" vertex="1">
          <mxGeometry x="90" y="320" width="160" height="40" as="geometry" />
        </mxCell>
        <mxCell id="1cwCdqXZDsxQNq5N9zXh-17" style="edgeStyle=orthogonalEdgeStyle;rounded=0;orthogonalLoop=1;jettySize=auto;html=1;exitX=0.5;exitY=1;exitDx=0;exitDy=0;" parent="hYGetJ4R6BA0Ou6j2oZ7-1" source="1cwCdqXZDsxQNq5N9zXh-14" edge="1">
          <mxGeometry relative="1" as="geometry">
            <mxPoint x="170" y="300" as="targetPoint" />
            <Array as="points">
              <mxPoint x="170" y="480" />
              <mxPoint x="70" y="480" />
              <mxPoint x="70" y="300" />
            </Array>
          </mxGeometry>
        </mxCell>
        <mxCell id="1cwCdqXZDsxQNq5N9zXh-14" value="j++;" style="whiteSpace=wrap;html=1;" parent="hYGetJ4R6BA0Ou6j2oZ7-1" vertex="1">
          <mxGeometry x="110" y="400" width="120" height="40" as="geometry" />
        </mxCell>
        <mxCell id="1cwCdqXZDsxQNq5N9zXh-16" value="1" style="text;html=1;align=center;verticalAlign=middle;resizable=0;points=[];autosize=1;strokeColor=none;fillColor=none;" parent="hYGetJ4R6BA0Ou6j2oZ7-1" vertex="1">
          <mxGeometry x="165" y="370" width="30" height="30" as="geometry" />
        </mxCell>
        <mxCell id="1cwCdqXZDsxQNq5N9zXh-20" value="0" style="text;html=1;align=center;verticalAlign=middle;resizable=0;points=[];autosize=1;strokeColor=none;fillColor=none;" parent="hYGetJ4R6BA0Ou6j2oZ7-1" vertex="1">
          <mxGeometry x="250" y="318" width="30" height="30" as="geometry" />
        </mxCell>
        <mxCell id="1cwCdqXZDsxQNq5N9zXh-22" style="edgeStyle=orthogonalEdgeStyle;rounded=0;orthogonalLoop=1;jettySize=auto;html=1;entryX=0;entryY=0.5;entryDx=0;entryDy=0;" parent="hYGetJ4R6BA0Ou6j2oZ7-1" source="1cwCdqXZDsxQNq5N9zXh-21" target="1cwCdqXZDsxQNq5N9zXh-3" edge="1">
          <mxGeometry relative="1" as="geometry">
            <Array as="points">
              <mxPoint x="170" y="640" />
              <mxPoint x="30" y="640" />
              <mxPoint x="30" y="100" />
            </Array>
          </mxGeometry>
        </mxCell>
        <mxCell id="1cwCdqXZDsxQNq5N9zXh-21" value="arr[j % row][i % col] = t;" style="rounded=0;whiteSpace=wrap;html=1;" parent="hYGetJ4R6BA0Ou6j2oZ7-1" vertex="1">
          <mxGeometry x="80" y="560" width="180" height="40" as="geometry" />
        </mxCell>
        <mxCell id="1cwCdqXZDsxQNq5N9zXh-24" value="0" style="text;html=1;align=center;verticalAlign=middle;resizable=0;points=[];autosize=1;strokeColor=none;fillColor=none;" parent="hYGetJ4R6BA0Ou6j2oZ7-1" vertex="1">
          <mxGeometry x="290" y="78" width="30" height="30" as="geometry" />
        </mxCell>
        <mxCell id="1cwCdqXZDsxQNq5N9zXh-25" value="return;" style="ellipse;whiteSpace=wrap;html=1;" parent="hYGetJ4R6BA0Ou6j2oZ7-1" vertex="1">
          <mxGeometry x="110" y="720" width="120" height="40" as="geometry" />
        </mxCell>
        <mxCell id="1cwCdqXZDsxQNq5N9zXh-26" value="}" style="text;html=1;align=center;verticalAlign=middle;resizable=0;points=[];autosize=1;strokeColor=none;fillColor=none;" parent="hYGetJ4R6BA0Ou6j2oZ7-1" vertex="1">
          <mxGeometry x="165" y="758" width="30" height="30" as="geometry" />
        </mxCell>
        <mxCell id="1cwCdqXZDsxQNq5N9zXh-27" value="}" style="text;html=1;align=center;verticalAlign=middle;resizable=0;points=[];autosize=1;strokeColor=none;fillColor=none;" parent="hYGetJ4R6BA0Ou6j2oZ7-1" vertex="1">
          <mxGeometry x="165" y="598" width="30" height="30" as="geometry" />
        </mxCell>
      </root>
    </mxGraphModel>
  </diagram>
</mxfile>
